<?xml version="1.0" encoding="UTF-8"?>
<svg version="1.1" xmlns="http://www.w3.org/2000/svg" width="638" height="293">
<path d="M0 0 C210.54 0 421.08 0 638 0 C638 96.69 638 193.38 638 293 C427.46 293 216.92 293 0 293 C0 196.31 0 99.62 0 0 Z " fill="#FEFEFE" transform="translate(0,0)"/>
<path d="M0 0 C5.54656387 6.07480805 6.92937782 13.26497925 8.8125 21.0625 C9.08513672 22.15498047 9.35777344 23.24746094 9.63867188 24.37304688 C11.625 32.45277256 11.625 32.45277256 11.625 35.875 C12.21023437 35.730625 12.79546875 35.58625 13.3984375 35.4375 C19.59230621 34.09828514 25.62111079 33.62949005 31.9375 33.5625 C32.70175293 33.54509766 33.46600586 33.52769531 34.25341797 33.50976562 C39.98601559 33.51477554 44.12515304 34.69771394 48.5625 38.5625 C50.36998419 42.49643617 49.3467481 46.81774404 47.94946289 50.80053711 C47.09477801 52.74156944 46.16860741 54.61972124 45.1875 56.5 C44.83405518 57.18731201 44.48061035 57.87462402 44.11645508 58.58276367 C32.46531126 80.59722672 14.65101316 97.88174304 -9.375 105.5625 C-14.6357261 107.05106558 -19.98207304 108.00351941 -25.375 108.875 C-24.86710937 109.45765625 -24.35921875 110.0403125 -23.8359375 110.640625 C-9.60686361 127.58761188 -1.25304011 153.99817812 -2.046875 176.25390625 C-2.47320459 179.65946761 -3.31040875 182.12221166 -5.375 184.875 C-10.32541716 186.52513905 -14.08917977 186.38848401 -18.9453125 184.44921875 C-20.13771858 183.834671 -21.32268896 183.20549295 -22.5 182.5625 C-23.09425781 182.25376953 -23.68851563 181.94503906 -24.30078125 181.62695312 C-27.73213363 179.82795491 -31.07279961 177.8999342 -34.375 175.875 C-34.47683594 176.56980469 -34.57867187 177.26460937 -34.68359375 177.98046875 C-35.49217006 181.36552552 -36.84175713 184.09787019 -38.4375 187.1875 C-39.25927734 188.79044922 -39.25927734 188.79044922 -40.09765625 190.42578125 C-40.51917969 191.23402344 -40.94070312 192.04226562 -41.375 192.875 C-44.24819258 193.13709846 -45.84519819 193.24026709 -48.26171875 191.57421875 C-60.03637097 178.4203231 -66.30695186 160.93615225 -72.59399414 144.70654297 C-73.23279878 142.89284146 -73.23279878 142.89284146 -74.375 141.875 C-75.695 144.845 -77.015 147.815 -78.375 150.875 C-78.705 150.875 -79.035 150.875 -79.375 150.875 C-79.57293777 145.01604209 -78.92134165 140.04159061 -77.5 134.375 C-75.79632681 127.19062129 -74.69571534 120.16163392 -73.87109375 112.8203125 C-73.18764777 107.38503344 -72.15271734 102.04165451 -71.1015625 96.66796875 C-70.23386303 92.13820434 -69.50409064 87.59354691 -68.8046875 83.03515625 C-68.375 80.875 -68.375 80.875 -67.375 79.875 C-64.75672502 68.80187875 -67.91470446 60.37320756 -73.375 50.875 C-76.36961211 46.34358456 -79.70906308 43.61966877 -84.375 40.875 C-84.375 39.885 -84.375 38.895 -84.375 37.875 C-83.715 37.875 -83.055 37.875 -82.375 37.875 C-82.375 38.535 -82.375 39.195 -82.375 39.875 C-81.67375 40.04 -80.9725 40.205 -80.25 40.375 C-70.76470682 45.32384861 -67.05310134 58.52360084 -63.375 67.875 C-63.9892254 54.82271022 -66.90931899 40.19403371 -76.5625 30.73046875 C-78.375 28.875 -78.375 28.875 -78.375 26.875 C-72.31670439 29.59078769 -68.80215192 34.36430594 -66.1875 40.375 C-63.73950672 46.99175171 -62.59413498 53.94809672 -61.375 60.875 C-60.64796875 59.07869141 -60.64796875 59.07869141 -59.90625 57.24609375 C-53.5796188 41.79712062 -46.86271755 27.94399687 -36.375 14.875 C-35.93671875 14.28332031 -35.4984375 13.69164063 -35.046875 13.08203125 C-27.51869557 3.19466883 -12.32618831 -7.76093338 0 0 Z " fill="#6C40A9" transform="translate(155.375,58.125)"/>
<path d="M0 0 C1.7265625 1.29296875 1.7265625 1.29296875 3 3 C3.89372701 10.53284192 1.50988467 15.41445047 -2.75 21.5 C-3.36875 22.2425 -3.36875 22.2425 -4 23 C-2.72125 22.79375 -1.4425 22.5875 -0.125 22.375 C2.0546875 22.0234375 2.0546875 22.0234375 4 22 C6.46996424 24.46996424 6.32331778 25.33897333 6.375 28.75 C6.29468514 33.80253464 5.17707197 36.14900367 2 40 C1.505 40.99 1.505 40.99 1 42 C2.11375 42.103125 3.2275 42.20625 4.375 42.3125 C5.57125 42.539375 6.7675 42.76625 8 43 C11.3178752 47.9768128 10.51564778 53.59784561 9.640625 59.37109375 C7.35878588 68.02049744 0.63060611 74.61684521 -6.75 79.3125 C-15.94128262 84.33366365 -25.45107785 87.36595514 -35.7109375 89.32421875 C-39.21503247 90.04418126 -42.57265798 90.98047421 -46 92 C-45.40832031 92.73863281 -44.81664063 93.47726563 -44.20703125 94.23828125 C-32.02085684 109.88350027 -27.28005715 125.9677882 -29.28125 145.78515625 C-30.47430923 152.84026614 -33.29373892 159.40994439 -36 166 C-41.42557036 166.34954655 -41.42557036 166.34954655 -43.8359375 164.8828125 C-52.85649954 154.58014012 -57.00869378 140.65797703 -61 127.8125 C-61.30292969 126.84497803 -61.60585937 125.87745605 -61.91796875 124.88061523 C-62.19253906 123.95708252 -62.46710938 123.0335498 -62.75 122.08203125 C-63.11351563 120.86350464 -63.11351563 120.86350464 -63.484375 119.62036133 C-64.73049298 113.2876983 -63.69226823 107.48990397 -62.34765625 101.296875 C-62.17245453 100.46943283 -61.99725281 99.64199066 -61.81674194 98.78947449 C-61.24293663 96.10713898 -60.65492009 93.42828283 -60.0625 90.75 C-59.76063278 89.37740524 -59.76063278 89.37740524 -59.45266724 87.9770813 C-54.69962145 66.52446187 -49.12820853 45.14221925 -38 26 C-37.64969727 25.38350586 -37.29939453 24.76701172 -36.93847656 24.13183594 C-31.39542642 14.49499674 -24.94899874 4.65345468 -13.9375 0.9375 C-9.44592477 -0.10392202 -4.56469749 -0.95214549 0 0 Z " fill="#FDFDFE" transform="translate(147,67)"/>
<path d="M0 0 C1.87075195 -0.0309375 1.87075195 -0.0309375 3.77929688 -0.0625 C12.04854674 -0.09726301 19.95715537 0.13548809 27 4.8984375 C27.515625 5.46820313 28.03125 6.03796875 28.5625 6.625 C29.09875 7.18960938 29.635 7.75421875 30.1875 8.3359375 C34.19395199 13.91310079 34.1529303 19.63146677 33.5625 26.25 C31.85853909 32.36421268 28.650256 35.71592433 23.5625 39.25 C22.23476495 39.92774763 20.90204988 40.59591411 19.5625 41.25 C25.2458792 50.66152507 30.93439099 60.02306917 37.19921875 69.0625 C38.5625 71.25 38.5625 71.25 38.5625 73.25 C34.56164594 74.56335027 30.75351302 75.31074036 26.58203125 74.35595703 C18.27584886 69.80723771 13.20148306 55.31298006 9.55957031 46.94580078 C8.62910034 44.78933936 8.62910034 44.78933936 6.5625 42.25 C3.9225 41.92 1.2825 41.59 -1.4375 41.25 C-1.4375 51.81 -1.4375 62.37 -1.4375 73.25 C-5.7275 73.25 -10.0175 73.25 -14.4375 73.25 C-14.46062504 63.87964062 -14.47841591 54.50929099 -14.48931217 45.13890934 C-14.49454065 40.78831541 -14.50163765 36.43774093 -14.51293945 32.0871582 C-14.52376959 27.89209742 -14.5297771 23.69705541 -14.53237724 19.50198174 C-14.53423126 17.89793032 -14.53785144 16.29387997 -14.54323006 14.6898365 C-14.55044219 12.45083485 -14.55149087 10.2119117 -14.55102539 7.97290039 C-14.553246 6.69604874 -14.55546661 5.41919708 -14.55775452 4.10365295 C-14.2774771 -2.54736105 -5.15026239 0.02071498 0 0 Z " fill="#5A1D69" transform="translate(245.4375,104.75)"/>
<path d="M0 0 C4.2198134 3.76578284 6.81002771 7.22179637 7.20532227 13.00268555 C7.26030884 14.80153198 7.26030884 14.80153198 7.31640625 16.63671875 C7.35830078 17.93544922 7.40019531 19.23417969 7.44335938 20.57226562 C7.48316987 21.94400761 7.52288216 23.31575244 7.5625 24.6875 C7.60570835 26.07097645 7.64932339 27.45444027 7.69335938 28.83789062 C7.79958028 32.22515719 7.90162358 35.61249799 8 39 C9.32 39.66 10.64 40.32 12 41 C12 43.64 12 46.28 12 49 C2.09448819 49.58267717 2.09448819 49.58267717 -2 46 C-2.8125 43.8125 -2.8125 43.8125 -3 42 C-3.66 42 -4.32 42 -5 42 C-5.33 42.99 -5.66 43.98 -6 45 C-11.10580807 48.5963529 -16.54698053 50.83002965 -22.828125 50.41796875 C-28.00868412 49.42099065 -31.78372189 47.59636502 -35 43.375 C-36.35817682 38.79115322 -36.79426743 34.73475927 -36 30 C-32.69926531 24.25033313 -28.23825196 21.93541335 -22 20 C-18.02787235 19.10487264 -14.07143687 18.32518571 -10.0625 17.61328125 C-7.13697102 17.32180306 -7.13697102 17.32180306 -6 16 C-5.49968794 12.58428147 -5.49968794 12.58428147 -6 9 C-8.72574171 6.35943772 -11.31794998 5.7719696 -15 5.5 C-18.45255973 5.62400498 -19.02655701 6.02090658 -21.9375 8.3125 C-24.14232781 10.88246713 -24.14232781 10.88246713 -25 14 C-27.97 13.67 -30.94 13.34 -34 13 C-34.75 10.875 -34.75 10.875 -35 8 C-32.55212345 3.20216197 -29.66376384 0.62336716 -25 -2 C-17.25075821 -4.49495844 -7.13316243 -4.04588462 0 0 Z " fill="#571967" transform="translate(343,129)"/>
<path d="M0 0 C4.26751157 3.54112662 6.75631151 6.51912942 7.30297852 12.08447266 C7.32803467 13.2657373 7.35309082 14.44700195 7.37890625 15.6640625 C7.41306641 16.95054687 7.44722656 18.23703125 7.48242188 19.5625 C7.50976033 20.91665378 7.53644565 22.2708209 7.5625 23.625 C7.62034705 26.28406768 7.68583328 28.94271246 7.75390625 31.6015625 C7.77783447 32.78057129 7.8017627 33.95958008 7.82641602 35.17431641 C7.81183978 37.94995469 7.81183978 37.94995469 9 40 C11.02463255 40.65213292 11.02463255 40.65213292 13 41 C13 43.64 13 46.28 13 49 C2.22506602 49.56489945 2.22506602 49.56489945 -2 46 C-2.66 45.01 -3.32 44.02 -4 43 C-4.845625 43.78375 -5.69125 44.5675 -6.5625 45.375 C-12.05173732 49.91294093 -18.12296387 50.54579652 -25 50 C-29.18913372 48.38879472 -32.10392634 46.4323836 -35 43 C-36.78438576 37.64684273 -36.85857691 32.82018305 -34.4375 27.6875 C-28.86279266 21.54102781 -22.43981771 20.13377647 -14.5625 18.75 C-13.64017578 18.57726562 -12.71785156 18.40453125 -11.76757812 18.2265625 C-9.51358076 17.80612776 -7.25811568 17.39760735 -5 17 C-4.78063532 12.64981818 -4.78063532 12.64981818 -6.3125 8.6875 C-8.86066158 6.13933842 -10.88708198 6.00615916 -14.4375 5.8125 C-18.59709706 5.97289207 -18.59709706 5.97289207 -22 8 C-23.76727858 11.0334467 -23.76727858 11.0334467 -25 14 C-28.3 13.67 -31.6 13.34 -35 13 C-34.7617224 8.94928083 -34.4373693 6.56990545 -31.9375 3.3125 C-22.42623051 -4.17509513 -11.07947725 -5.7213694 0 0 Z " fill="#571866" transform="translate(482,129)"/>
<path d="M0 0 C16.7660206 11.59065733 23.72656856 32.41385922 27.59277344 51.56982422 C28.63919489 57.81447599 29.80194336 65.65037523 26.7265625 71.3671875 C24.64528493 73.33545453 23.71316199 73.59448213 20.875 73.625 C14.9665098 73.40222086 10.11853928 70.11853928 6 66 C5.81992405 64.39794502 5.69991026 62.78906263 5.60546875 61.1796875 C4.2785464 41.05442909 1.02577608 23.22292859 -10.64453125 6.27734375 C-12 4 -12 4 -12 1 C-7.53613221 -0.48795593 -4.52922541 -1.41322863 0 0 Z " fill="#FDFCFD" transform="translate(117,159)"/>
<path d="M0 0 C4.29 0 8.58 0 13 0 C25 30.50144092 25 30.50144092 25 35 C25.66 35 26.32 35 27 35 C27.22429687 33.79472656 27.44859375 32.58945313 27.6796875 31.34765625 C29.13574257 24.79540842 31.66404664 18.66571109 34.125 12.4375 C34.59292969 11.23802734 35.06085938 10.03855469 35.54296875 8.80273438 C36.68949896 5.86621312 37.84394901 2.93278617 39 0 C42.96 0 46.92 0 51 0 C50.10835435 4.45822824 48.79754018 8.2942738 47.078125 12.45703125 C46.7815097 13.18534653 46.48489441 13.9136618 46.17929077 14.66404724 C45.20704706 17.04859905 44.22861457 19.43055653 43.25 21.8125 C42.57559967 23.4623978 41.90161312 25.11246479 41.22802734 26.76269531 C39.84291189 30.15518511 38.45567451 33.54679721 37.06738281 36.93798828 C35.08083649 41.79565848 33.11211727 46.660393 31.1484375 51.52734375 C30.54789929 53.0139353 29.94731446 54.50050801 29.34667969 55.98706055 C28.48868688 58.11061384 27.63128281 60.23439257 26.77600098 62.35903931 C25.99103401 64.30802583 25.20293329 66.255716 24.4140625 68.203125 C23.9701416 69.30301758 23.5262207 70.40291016 23.06884766 71.53613281 C22 74 22 74 21 75 C19.14712498 75.07226502 17.29166122 75.0838122 15.4375 75.0625 C13.91962891 75.04896484 13.91962891 75.04896484 12.37109375 75.03515625 C11.58863281 75.02355469 10.80617188 75.01195312 10 75 C10.58324854 71.60553819 11.4354943 68.72297085 12.8828125 65.6015625 C13.24503906 64.79203125 13.60726563 63.9825 13.98046875 63.1484375 C14.74189565 61.46966009 15.51271424 59.79511 16.29296875 58.125 C16.65261719 57.31289062 17.01226562 56.50078125 17.3828125 55.6640625 C17.71684082 54.93654785 18.05086914 54.2090332 18.39501953 53.45947266 C19.98620995 46.99068643 17.01202696 41.037384 14.47265625 35.21484375 C14.12367783 34.39552872 13.7746994 33.57621368 13.41514587 32.73207092 C12.30542741 30.13044636 11.18451842 27.5338405 10.0625 24.9375 C8.94616612 22.33673856 7.83222907 19.73497858 6.7205658 17.13221741 C6.03035548 15.51809164 5.33712064 13.90525473 4.64039612 12.29393005 C4.1649662 11.18731773 4.1649662 11.18731773 3.67993164 10.05834961 C3.40315079 9.41772079 3.12636993 8.77709198 2.84120178 8.11705017 C1.78265375 5.4530053 0.90651304 2.71953913 0 0 Z " fill="#551765" transform="translate(374,127)"/>
<path d="M0 0 C4.48690432 2.74708427 7.36276287 5.77578862 9.0625 10.875 C9.14794291 12.21028807 9.18024625 13.54943888 9.17602539 14.88745117 C9.17594986 15.68805466 9.17587433 16.48865814 9.17579651 17.31352234 C9.17063522 18.17298965 9.16547394 19.03245697 9.16015625 19.91796875 C9.1587413 20.8015657 9.15732635 21.68516266 9.15586853 22.59553528 C9.15027069 25.41789128 9.13771861 28.24016797 9.125 31.0625 C9.11998472 32.97591031 9.11542186 34.88932187 9.11132812 36.80273438 C9.10030197 41.49352014 9.08303883 46.18424663 9.0625 50.875 C5.1025 50.875 1.1425 50.875 -2.9375 50.875 C-2.94160889 49.78034424 -2.94571777 48.68568848 -2.94995117 47.55786133 C-2.97177052 43.48528355 -3.02608831 39.41366809 -3.09008789 35.34155273 C-3.11324364 33.58123009 -3.12765794 31.82076939 -3.13305664 30.06030273 C-3.14236442 27.52500621 -3.18339048 24.99187372 -3.23046875 22.45703125 C-3.2265361 21.67350784 -3.22260345 20.88998444 -3.21855164 20.0827179 C-3.32937924 15.90538935 -3.61674931 14.28950081 -6.26293945 10.86987305 C-9.76731513 8.25606624 -11.65250895 8.26285842 -15.9375 8.875 C-20.16478826 10.70041993 -21.95442666 12.76723009 -23.9375 16.875 C-24.25557297 19.5885881 -24.42506356 22.08696723 -24.44921875 24.80078125 C-24.46716995 25.54837204 -24.48512115 26.29596283 -24.50361633 27.06620789 C-24.55753849 29.43991558 -24.59155554 31.81342432 -24.625 34.1875 C-24.65818921 35.80276195 -24.69268035 37.41799771 -24.72851562 39.03320312 C-24.81325399 42.98032476 -24.88015049 46.92738927 -24.9375 50.875 C-28.5675 50.875 -32.1975 50.875 -35.9375 50.875 C-35.9375 34.045 -35.9375 17.215 -35.9375 -0.125 C-32.3075 -0.125 -28.6775 -0.125 -24.9375 -0.125 C-24.6075 1.195 -24.2775 2.515 -23.9375 3.875 C-23.174375 3.235625 -22.41125 2.59625 -21.625 1.9375 C-15.85545575 -2.49028977 -6.74605691 -2.53163284 0 0 Z " fill="#541564" transform="translate(556.9375,127.125)"/>
<path d="M0 0 C0.495 0.495 0.99 0.99 1.5 1.5 C1.18940776 4.65411779 0.96019189 6.09389441 -1.4609375 8.23046875 C-2.25757813 8.71128906 -3.05421875 9.19210938 -3.875 9.6875 C-4.66648437 10.17605469 -5.45796875 10.66460937 -6.2734375 11.16796875 C-7.00820312 11.60753906 -7.74296875 12.04710938 -8.5 12.5 C-9.49 13.16 -10.48 13.82 -11.5 14.5 C-10.530625 15.056875 -9.56125 15.61375 -8.5625 16.1875 C-5.5 18.5 -5.5 18.5 -4.625 21.25 C-4.58375 21.9925 -4.5425 22.735 -4.5 23.5 C-9.08365028 28.24170719 -14.24528499 28.66749853 -20.5 29.5 C-19.84 30.03625 -19.18 30.5725 -18.5 31.125 C-16.5 33.5 -16.5 33.5 -16.0390625 36.2734375 C-16.65592656 40.59148595 -18.8121707 42.63935444 -21.875 45.5 C-22.41866211 46.02327881 -22.96232422 46.54655762 -23.52246094 47.08569336 C-32.75280919 55.7300519 -42.88143078 61.08112498 -55.625 60.8125 C-56.78322266 60.81733398 -56.78322266 60.81733398 -57.96484375 60.82226562 C-62.51976953 60.77958744 -66.21524633 60.21800826 -70.5 58.5 C-66.96630335 56.62299904 -63.29620374 55.24251245 -59.5625 53.8125 C-44.73204784 47.96338563 -31.57047655 41.45593015 -24.5 26.5 C-21.0293295 17.92155028 -21.16840868 9.60033945 -21.5 0.5 C-4.87226277 -2.92335766 -4.87226277 -2.92335766 0 0 Z " fill="#FBFAFD" transform="translate(189.5,98.5)"/>
<path d="M0 0 C0.495 1.485 0.495 1.485 1 3 C-0.37109375 5.46875 -0.37109375 5.46875 -2.4375 8.5 C-5.89154141 13.83166994 -8.65490598 19.27410538 -11.125 25.125 C-11.42462646 25.82044922 -11.72425293 26.51589844 -12.03295898 27.23242188 C-18.8495746 43.76595249 -22.73147945 60.98276897 -26.25805664 78.45117188 C-26.81072228 81.17039062 -27.37912425 83.88595362 -27.94921875 86.6015625 C-28.11177658 87.43362213 -28.27433441 88.26568176 -28.44181824 89.12295532 C-28.86111438 91.10580684 -29.41821604 93.05859926 -30 95 C-31.485 95.495 -31.485 95.495 -33 96 C-32.52058285 88.19707253 -31.26145203 80.62682607 -29.76171875 72.96875 C-28.86601033 68.38450315 -28.13802104 63.77675115 -27.4296875 59.16015625 C-27 57 -27 57 -26 56 C-23.38172502 44.92687875 -26.53970446 36.49820756 -32 27 C-34.99461211 22.46858456 -38.33406308 19.74466877 -43 17 C-43 16.01 -43 15.02 -43 14 C-42.34 14 -41.68 14 -41 14 C-41 14.66 -41 15.32 -41 16 C-40.29875 16.165 -39.5975 16.33 -38.875 16.5 C-29.38970682 21.44884861 -25.67810134 34.64860084 -22 44 C-22.6142254 30.94771022 -25.53431899 16.31903371 -35.1875 6.85546875 C-37 5 -37 5 -37 3 C-30.94170439 5.71578769 -27.42715192 10.48930594 -24.8125 16.5 C-22.36450672 23.11675171 -21.21913498 30.07309672 -20 37 C-19.27296875 35.20369141 -19.27296875 35.20369141 -18.53125 33.37109375 C-15.21398594 25.27336154 -11.82031781 17.25247672 -7.75 9.5 C-7.43353516 8.88439209 -7.11707031 8.26878418 -6.79101562 7.63452148 C-4.97505414 4.26576064 -3.26824367 2.02457572 0 0 Z " fill="#734AAD" transform="translate(114,82)"/>
<path d="M0 0 C2.68125 -0.103125 5.3625 -0.20625 8.125 -0.3125 C9.37434326 -0.38078003 9.37434326 -0.38078003 10.64892578 -0.45043945 C14.61689479 -0.52381516 17.29557483 -0.23701697 20.515625 2.203125 C23.15817461 5.17807079 23.78128414 6.17342937 23.625 10.0625 C23.42016562 13.50371753 23.20216696 14.72370515 21.125 17.5625 C16.91593976 20.40980545 13.30872197 20.11416919 8.375 20.0625 C5.61125 20.041875 2.8475 20.02125 0 20 C0 13.4 0 6.8 0 0 Z " fill="#FDFDFD" transform="translate(244,116)"/>
<path d="M0 0 C-0.41324256 5.2688427 -1.22944438 8.22944438 -5 12 C-8.10657405 13.91739087 -10.49658389 14.27166219 -14.125 14.25 C-15.42824219 14.25773438 -15.42824219 14.25773438 -16.7578125 14.265625 C-19 14 -19 14 -21 12 C-21.375 9.0625 -21.375 9.0625 -21 6 C-15.72442389 1.04193542 -7.03822658 -0.57066702 0 0 Z " fill="#F9F8FA" transform="translate(339,155)"/>
<path d="M0 0 C-0.36873882 6.14564694 -1.77253377 8.77253377 -6 13 C-8.76047543 13.92015848 -10.63362269 14.19267245 -13.5 14.25 C-14.66015625 14.28867188 -14.66015625 14.28867188 -15.84375 14.328125 C-18 14 -18 14 -19.77734375 12.671875 C-21 11 -21 11 -21.0625 8 C-20 5 -20 5 -17.5625 3.25 C-11.77617728 1.21971133 -6.13987577 0 0 0 Z " fill="#FAF8FA" transform="translate(478,155)"/>
<path d="M0 0 C6.00098872 2.69009839 9.54386914 7.43949164 12.1875 13.375 C14.87772256 20.62396791 15.83444753 28.38858918 17 36 C16.01 36.495 16.01 36.495 15 37 C14.76925781 35.81664062 14.53851563 34.63328125 14.30078125 33.4140625 C11.96218514 21.89056308 9.46895023 12.10600327 1.13671875 3.375 C0 2 0 2 0 0 Z " fill="#8460B7" transform="translate(77,85)"/>
<path d="M0 0 C0.66 0 1.32 0 2 0 C2 0.66 2 1.32 2 2 C3.051875 2.2475 3.051875 2.2475 4.125 2.5 C12.10915348 6.66564529 16.02897887 16.95792001 19 25 C19.39767059 27.32323345 19.74879467 29.65640203 20 32 C18.14032049 29.21048074 16.91059753 26.48909967 15.64013672 23.40112305 C11.92242649 14.41682661 8.68478789 8.10869876 0 3 C0 2.01 0 1.02 0 0 Z " fill="#8866BA" transform="translate(71,96)"/>
<path d="M0 0 C-2.49996659 2.9777759 -5.04711071 3.94548483 -8.6875 5.1875 C-9.68136719 5.53167969 -10.67523438 5.87585938 -11.69921875 6.23046875 C-12.45847656 6.48441406 -13.21773438 6.73835937 -14 7 C-14.33 6.01 -14.66 5.02 -15 4 C-12.87875034 3.13656176 -10.75286928 2.28449352 -8.625 1.4375 C-6.84996094 0.72400391 -6.84996094 0.72400391 -5.0390625 -0.00390625 C-2 -1 -2 -1 0 0 Z " fill="#7A53B1" transform="translate(139,148)"/>
<path d="M0 0 C0.66 0 1.32 0 2 0 C2 0.66 2 1.32 2 2 C2.78375 2.268125 3.5675 2.53625 4.375 2.8125 C7 4 7 4 9 7 C4.94519369 7 3.15167025 5.45129908 0 3 C0 2.01 0 1.02 0 0 Z " fill="#835EB6" transform="translate(71,96)"/>
<path d="M0 0 C0.33 1.32 0.66 2.64 1 4 C1.66 4 2.32 4 3 4 C2.67 6.64 2.34 9.28 2 12 C1.01 11.34 0.02 10.68 -1 10 C-0.67 6.7 -0.34 3.4 0 0 Z " fill="#825EB6" transform="translate(85,151)"/>
<path d="M0 0 C0.33 0.99 0.66 1.98 1 3 C-0.3125 5.1875 -0.3125 5.1875 -2 7 C-2.66 7 -3.32 7 -4 7 C-3.39816251 4.97954558 -2.72693904 2.97888961 -2 1 C-1.34 0.67 -0.68 0.34 0 0 Z " fill="#6E43AA" transform="translate(106,95)"/>
</svg>
